<svg id="SvgjsSvg1032" width="288" height="288" xmlns="http://www.w3.org/2000/svg" version="1.1" xmlns:xlink="http://www.w3.org/1999/xlink" xmlns:svgjs="http://svgjs.com/svgjs"><defs id="SvgjsDefs1033"></defs><g id="SvgjsG1034"><svg xmlns="http://www.w3.org/2000/svg" width="288" height="288" enable-background="new 0 0 32 32" viewBox="0 0 32 32"><path fill="#ff8801" d="M13.6 9.6c-.3-.2-.7-.3-1.1-.4-.5 0-1 .2-1.4.6-.3.4-.5.9-.4 1.4 0 .7.2 1.4.6 2.2.2.4.5.7.8.9.3.2.7.4 1.1.4.5 0 1-.2 1.3-.6.2-.2.3-.5.3-.8 0-.3 0-.5 0-.7 0-.8-.2-1.5-.6-2.3C14.2 10.1 13.9 9.8 13.6 9.6zM13.5 17.9c-.1 0-.4 0-.8 0-.4.1-.8.1-1.3.3-.1 0-.2.1-.4.2-.2.1-.4.2-.6.4-.2.2-.3.4-.5.6-.1.2-.2.5-.2.9 0 .7.3 1.3 1 1.7.6.4 1.4.7 2.5.7 1 0 1.7-.2 2.2-.6.5-.4.7-.9.7-1.5 0-.5-.2-.9-.5-1.3-.4-.3-.9-.8-1.7-1.3C13.8 17.9 13.7 17.9 13.5 17.9z" class="color444 svgShape"></path><path fill="#ff8801" d="M0,0v32h32V0H0z M15.8,9.6c0.2,0.2,0.3,0.3,0.4,0.6c0.1,0.2,0.3,0.5,0.4,0.7c0.1,0.3,0.1,0.6,0.1,1
	c0,0.7-0.2,1.3-0.5,1.7c-0.2,0.2-0.3,0.4-0.5,0.6c-0.2,0.2-0.4,0.3-0.6,0.5c-0.1,0.1-0.2,0.3-0.3,0.4c-0.1,0.2-0.2,0.3-0.2,0.6
	c0,0.2,0.1,0.4,0.2,0.5c0.1,0.1,0.2,0.2,0.3,0.3l0.7,0.5c0.4,0.3,0.8,0.7,1.1,1.1c0.3,0.4,0.5,1,0.5,1.6c0,0.9-0.4,1.8-1.3,2.5
	c-0.9,0.8-2.2,1.1-3.9,1.2c-1.4,0-2.5-0.3-3.2-0.9C8.4,22,8,21.4,8,20.6c0-0.4,0.1-0.8,0.3-1.2C8.6,19,9,18.6,9.6,18.3
	c0.7-0.4,1.3-0.6,2.1-0.7c0.7-0.1,1.3-0.2,1.8-0.2c-0.1-0.2-0.3-0.4-0.4-0.6c-0.1-0.2-0.2-0.4-0.2-0.7c0-0.2,0-0.3,0.1-0.4
	c0-0.1,0.1-0.2,0.1-0.3c-0.2,0-0.4,0-0.6,0c-1.1,0-1.9-0.3-2.5-1C9.3,13.7,9,13,9,12.3c0-1,0.4-1.8,1.3-2.6c0.6-0.5,1.2-0.8,1.8-0.9
	c0.6-0.1,1.2-0.2,1.7-0.2h4l-1.2,0.7h-1.2C15.5,9.4,15.6,9.5,15.8,9.6z M24,16.6h-2.3v2.3h-1.1v-2.3h-2.3v-1.1h2.3v-2.3h1.1v2.3H24
	V16.6z" class="color444 svgShape"></path></svg></g></svg>