<svg id="SvgjsSvg1027" width="288" height="288" xmlns="http://www.w3.org/2000/svg" version="1.1" xmlns:xlink="http://www.w3.org/1999/xlink" xmlns:svgjs="http://svgjs.com/svgjs"><defs id="SvgjsDefs1028"></defs><g id="SvgjsG1029"><svg xmlns="http://www.w3.org/2000/svg" width="288" height="288" enable-background="new 0 0 32 32" viewBox="0 0 32 32"><path fill="#ff8801" d="M0,0v32h32V0H0z M18.3,22.4c0,0-1.1,0.1-2.3,0.1s-2.3-0.1-2.3-0.1C10.9,22.1,8,21,8,16.2
	c0-1.4,0.5-2.5,1.3-3.4c-0.1-0.3-0.6-1.6,0.1-3.3c0,0,1.1-0.3,3.4,1.3c1-0.3,2.1-0.4,3.1-0.4c1.1,0,2.1,0.1,3.1,0.4
	c2.4-1.6,3.4-1.3,3.4-1.3c0.7,1.7,0.3,3,0.1,3.3c0.8,0.9,1.3,2,1.3,3.4C24,21,21.1,22.1,18.3,22.4z" class="color444 svgShape"></path></svg></g></svg>